<?xml version="1.0" standalone="no"?>
<!DOCTYPE svg PUBLIC "-//W3C//DTD SVG 20010904//EN"
 "http://www.w3.org/TR/2001/REC-SVG-20010904/DTD/svg10.dtd">
<svg version="1.0" xmlns="http://www.w3.org/2000/svg"
 width="1024.000000pt" height="1024.000000pt" viewBox="0 0 1024.000000 1024.000000"
 preserveAspectRatio="xMidYMid meet">

<g transform="translate(0.000000,1024.000000) scale(0.100000,-0.100000)"
fill="#000000" stroke="none">
<path d="M7915 9221 c-327 -60 -545 -171 -761 -386 -120 -120 -202 -239 -295
-430 -65 -134 -129 -278 -126 -281 2 -2 689 -405 795 -467 56 -33 63 -35 69
-19 24 72 120 279 159 343 125 206 288 309 489 309 341 0 543 -319 378 -598
-48 -82 -122 -145 -311 -262 -381 -238 -530 -347 -653 -478 -87 -93 -157 -196
-210 -305 -33 -70 -184 -525 -176 -533 1 -2 115 -46 252 -98 138 -53 313 -120
390 -150 77 -30 142 -53 146 -50 3 2 16 32 29 66 32 87 109 250 159 336 102
175 176 234 516 407 368 189 487 266 607 393 159 169 263 371 315 612 26 121
25 429 -1 550 -102 471 -431 826 -909 979 -191 61 -271 73 -527 77 -196 3
-251 0 -335 -15z m640 -151 c557 -118 931 -490 1006 -1000 18 -125 7 -342 -24
-461 -54 -208 -142 -365 -281 -505 -114 -113 -206 -174 -497 -325 -385 -200
-497 -279 -582 -407 -49 -74 -143 -257 -172 -335 -10 -26 -23 -46 -29 -44
-149 59 -418 161 -471 179 -38 12 -71 23 -73 24 -7 3 100 309 132 376 83 175
207 321 386 455 52 39 201 138 330 218 320 201 399 266 469 389 57 99 73 169
69 292 -3 104 -5 114 -42 190 -116 236 -392 365 -661 309 -102 -21 -238 -92
-318 -165 -78 -72 -178 -216 -237 -343 l-41 -87 -27 14 c-15 8 -103 59 -197
113 -93 55 -218 126 -277 159 -91 50 -107 62 -102 79 4 11 32 74 64 140 216
447 542 689 1015 754 120 17 445 6 560 -19z"/>
<path d="M4110 8606 c-397 -61 -689 -190 -952 -420 -164 -143 -313 -340 -414
-544 -63 -130 -79 -133 -119 -29 -78 201 -191 400 -283 499 -138 148 -329 244
-596 298 -54 11 -102 20 -106 20 -5 0 6 -33 25 -72 46 -100 65 -182 65 -274 0
-102 -21 -186 -70 -292 -22 -47 -40 -86 -40 -87 0 -1 24 -5 53 -8 195 -24 412
-135 580 -297 69 -67 78 -80 72 -101 -4 -13 -8 -25 -10 -27 -1 -1 -31 11 -67
27 -105 48 -293 110 -398 131 -299 61 -644 -15 -865 -190 -41 -33 -75 -64 -75
-68 0 -4 31 -20 68 -37 159 -71 302 -209 427 -413 l38 -63 61 60 c156 152 300
213 575 240 57 6 136 11 176 11 72 0 72 0 98 -37 30 -44 56 -62 111 -78 38
-11 40 -14 51 -69 6 -31 9 -58 7 -61 -3 -3 -17 -5 -31 -5 -76 0 -212 -103
-260 -198 -50 -97 -64 -262 -36 -396 30 -141 133 -303 241 -377 105 -72 266
-104 399 -79 l67 13 41 -49 c22 -27 79 -88 126 -135 l86 -86 -58 -23 c-91 -35
-202 -115 -263 -188 -30 -36 -54 -70 -54 -74 0 -17 -18 -6 -83 47 l-67 55 37
73 c81 158 43 277 -87 277 -56 0 -96 -19 -157 -74 l-52 -47 -148 129 c-559
486 -972 834 -1009 852 -54 25 -87 25 -142 0 -101 -46 -222 -221 -222 -321 0
-76 28 -120 127 -197 270 -211 1022 -808 1045 -829 l27 -26 -46 -84 c-52 -95
-58 -141 -26 -195 24 -41 56 -58 109 -58 49 0 141 44 202 96 38 32 45 35 60
22 74 -63 213 -177 236 -194 l29 -21 -17 -107 c-16 -98 -22 -113 -71 -192 -70
-110 -96 -181 -103 -272 -6 -91 14 -149 73 -207 l42 -42 -34 -83 c-18 -45 -33
-90 -33 -100 0 -10 -19 -30 -42 -45 -112 -73 -458 -457 -458 -508 0 -9 18 -29
40 -43 22 -15 40 -32 40 -38 0 -21 -102 -171 -133 -196 -65 -50 -178 -165
-206 -209 -39 -61 -63 -148 -60 -215 2 -51 0 -58 -37 -98 -48 -52 -92 -116
-128 -184 -21 -40 -47 -67 -118 -120 -250 -187 -401 -382 -429 -553 -16 -100
9 -139 121 -189 86 -39 172 -59 306 -72 229 -23 531 28 622 105 42 36 59 85
87 254 13 84 30 160 37 168 6 8 65 51 130 95 65 44 118 84 118 88 0 4 38 10
84 13 175 14 258 56 616 313 135 97 255 183 267 191 20 14 30 12 117 -22 51
-20 117 -42 145 -50 59 -15 49 -29 77 110 9 44 18 83 20 87 12 18 99 5 210
-31 65 -21 154 -46 197 -56 l77 -19 0 -44 c0 -37 3 -43 17 -38 9 4 46 12 83
18 57 10 80 9 144 -5 42 -9 87 -17 99 -17 20 0 23 -4 19 -35 -10 -84 36 -163
119 -206 42 -21 38 -11 59 -174 10 -87 10 -92 -15 -155 -64 -162 -82 -298 -46
-356 32 -53 139 -82 416 -116 141 -17 706 -17 810 0 142 24 225 55 245 91 16
31 12 109 -9 149 -22 43 -96 116 -161 159 -25 17 -128 72 -229 122 -179 90
-183 93 -177 119 4 15 9 83 13 152 l6 125 47 52 c64 70 81 122 87 263 6 133
-7 203 -60 309 -42 88 -155 201 -269 271 -49 29 -88 56 -88 59 1 3 12 19 25
36 l24 29 -67 39 c-95 55 -243 128 -339 167 -46 19 -83 37 -83 42 0 4 12 15
28 25 15 9 45 34 67 54 l40 38 46 -30 c64 -41 146 -55 224 -39 58 12 246 102
329 158 59 40 103 103 116 166 l11 54 24 -24 c32 -32 71 -40 119 -23 81 28
106 114 67 227 l-18 53 31 13 c73 31 709 323 915 419 l225 106 25 -19 c14 -11
76 -67 136 -124 l110 -105 -25 -17 c-49 -33 -153 -151 -212 -239 -68 -102
-201 -366 -190 -377 9 -9 577 -234 614 -243 22 -6 27 -3 33 17 15 49 97 203
139 262 53 75 106 112 190 133 57 14 68 14 126 -1 191 -49 265 -232 159 -397
-42 -65 -92 -104 -260 -200 -369 -211 -444 -291 -614 -655 -42 -91 -75 -167
-73 -168 1 -2 91 -40 198 -86 107 -45 225 -95 262 -111 36 -16 70 -29 75 -29
5 0 20 25 32 55 29 70 110 205 152 253 69 79 154 135 337 223 100 49 216 112
258 140 92 64 216 194 267 280 237 404 130 926 -242 1179 -182 123 -447 193
-672 177 l-86 -7 -124 116 c-68 64 -136 125 -150 136 l-26 20 306 155 c710
361 808 419 957 568 95 94 154 176 228 316 64 120 147 309 135 309 -18 0 -228
-81 -341 -131 -100 -45 -607 -300 -1468 -739 l-285 -145 -70 46 c-38 25 -99
61 -135 78 l-65 32 106 -104 c59 -58 160 -147 225 -199 66 -52 213 -178 327
-279 115 -101 249 -218 298 -260 85 -73 299 -229 314 -229 9 0 -29 62 -82 133
-24 31 -43 60 -43 64 0 13 205 -9 293 -31 283 -72 489 -255 574 -511 24 -72
27 -95 27 -225 1 -163 -11 -223 -70 -346 -87 -185 -211 -291 -495 -425 -190
-91 -239 -120 -319 -196 -76 -71 -157 -177 -199 -260 l-21 -43 -48 19 c-26 11
-93 38 -148 60 -56 23 -106 41 -112 41 -25 0 -20 24 24 112 149 300 222 375
535 554 217 124 288 187 343 303 42 90 48 209 16 294 -30 80 -112 167 -198
209 -61 30 -74 33 -162 33 -75 -1 -107 -5 -153 -24 -112 -44 -210 -146 -285
-298 l-36 -71 -50 20 c-28 11 -120 46 -204 78 -85 32 -156 61 -159 64 -7 7 57
123 125 226 72 109 219 260 253 260 13 0 64 -18 113 -40 49 -22 91 -38 93 -36
14 14 -412 424 -777 750 -85 76 -192 172 -238 213 -46 42 -85 73 -88 70 -11
-10 50 -170 82 -214 19 -26 30 -51 26 -55 -4 -4 -187 -94 -407 -201 -220 -107
-438 -213 -485 -236 l-84 -41 -25 25 -25 25 166 162 c359 351 598 614 870 959
261 332 448 631 521 836 84 233 82 555 -5 821 -17 50 -34 92 -38 92 -4 0 -47
-69 -95 -152 -118 -207 -481 -811 -557 -928 -106 -164 -386 -574 -413 -605
l-26 -30 7 40 c3 22 8 128 9 235 3 171 7 214 35 349 17 85 36 202 42 260 10
87 17 114 40 151 16 24 33 60 38 80 13 45 13 279 0 395 -20 179 -44 242 -114
301 -33 27 -50 53 -71 105 -57 145 -201 341 -355 480 -126 115 -242 193 -405
273 -193 96 -330 141 -545 182 -115 22 -502 28 -620 10z m527 -141 c216 -31
370 -78 568 -176 77 -38 183 -99 235 -136 161 -116 328 -295 414 -445 l27 -47
-86 29 c-668 226 -1533 248 -2301 60 -188 -46 -397 -112 -538 -170 -55 -22
-101 -40 -103 -40 -11 0 113 221 164 292 244 339 680 585 1129 637 117 14 382
12 491 -4z m-2671 -266 c149 -62 288 -177 372 -308 20 -31 68 -124 109 -207
l74 -152 -58 -55 -57 -55 -78 73 c-154 145 -298 240 -439 290 l-75 26 25 72
c26 78 34 213 18 310 -10 57 -15 56 109 6z m2919 -469 c339 -26 692 -100 950
-201 135 -53 197 -88 213 -121 26 -55 43 -166 49 -317 6 -149 5 -154 -13 -146
-136 56 -443 140 -654 179 -620 113 -1411 88 -2025 -65 -218 -54 -539 -170
-707 -255 -26 -13 -50 -24 -52 -24 -3 0 -8 17 -11 38 -4 20 -9 45 -12 55 -14
53 328 264 626 386 205 84 371 135 676 205 141 32 -174 1 -348 -35 -302 -62
-675 -199 -859 -315 -20 -13 -42 -24 -48 -24 -18 0 -11 92 11 137 43 89 151
165 344 241 342 136 770 230 1180 261 162 12 520 12 680 1z m-2274 -363 c-22
-29 -47 -69 -56 -90 -17 -40 -20 -159 -6 -219 7 -31 5 -40 -13 -56 -24 -23
-50 -17 -81 18 -17 19 -20 36 -19 109 0 106 21 158 95 236 43 46 58 55 86 55
l34 0 -40 -53z m-806 -62 c73 -14 222 -61 360 -113 119 -44 135 -53 135 -74 0
-16 -9 -18 -95 -18 -284 0 -519 -63 -675 -182 l-54 -41 -31 39 c-56 72 -150
167 -223 226 l-74 58 67 30 c86 38 214 78 290 89 71 11 202 5 300 -14z m5311
-315 c14 -310 -73 -541 -356 -945 -267 -382 -546 -700 -1117 -1275 l-412 -415
-57 57 -57 57 134 146 c490 534 757 860 1064 1300 136 194 382 567 441 667 21
37 42 68 47 68 4 0 6 -52 4 -116 -5 -158 5 -126 46 148 14 95 17 101 110 260
53 90 104 180 114 201 l17 39 8 -29 c4 -15 11 -89 14 -163z m-1996 46 c176
-22 344 -52 490 -87 132 -31 365 -102 390 -119 12 -7 15 -33 14 -132 -1 -98
-9 -161 -38 -306 -27 -140 -36 -208 -36 -288 l0 -104 -42 -46 c-65 -71 -148
-104 -263 -104 -95 0 -177 25 -344 105 -86 41 -181 80 -211 86 -88 19 -197 6
-374 -45 -212 -61 -349 -80 -541 -73 -118 4 -172 11 -253 32 -124 32 -247 80
-362 142 -92 50 -301 185 -319 207 -33 40 224 627 285 650 56 21 452 76 689
96 170 13 767 4 915 -14z m-2464 -454 c87 -31 165 -83 254 -172 226 -228 568
-450 835 -543 179 -62 246 -72 475 -72 232 1 291 9 523 78 125 36 154 42 242
42 l100 0 142 -68 c188 -89 271 -110 417 -105 97 3 118 7 164 31 29 15 70 43
91 62 l37 34 -8 -66 c-21 -174 -76 -282 -212 -418 -149 -148 -322 -242 -552
-299 -156 -40 -216 -47 -419 -53 -530 -15 -1047 133 -1415 406 -95 70 -271
246 -335 334 -35 49 -54 66 -65 61 -78 -34 -102 -38 -200 -39 -96 0 -110 3
-163 29 -152 74 -257 256 -257 447 0 240 153 377 346 311z m-1491 -265 c12 -7
47 -32 78 -56 l57 -44 -83 -86 c-46 -48 -92 -99 -101 -114 l-18 -26 -65 51
c-63 50 -65 53 -60 90 7 50 61 133 110 169 44 32 53 34 82 16z m300 -244 l79
-67 -54 -17 c-30 -9 -69 -19 -86 -23 l-30 -7 -2 91 c0 49 2 90 6 90 4 0 43
-30 87 -67z m7383 -154 c-87 -163 -224 -306 -395 -411 -175 -108 -747 -407
-991 -518 -71 -32 -73 -33 -93 -14 -20 18 -20 18 28 42 163 82 816 452 810
458 -4 5 -337 -166 -680 -348 l-207 -110 -28 18 c-15 10 -53 37 -84 60 l-57
41 82 38 c45 21 354 176 686 344 508 257 956 480 969 481 2 0 -16 -36 -40 -81z
m-7478 -59 l0 -90 -80 67 c-43 37 -77 69 -75 72 3 2 37 12 77 22 40 9 74 18
76 18 1 1 2 -40 2 -89z m368 -19 c34 -30 61 -55 59 -58 -3 -2 -39 -12 -81 -22
l-76 -18 0 90 c0 85 1 89 18 76 9 -9 45 -39 80 -68z m-109 -192 l2 -82 -48 38
c-26 22 -63 51 -80 67 l-33 27 38 10 c20 5 53 14 72 19 19 5 38 8 41 6 3 -2 7
-40 8 -85z m351 -13 c39 -32 68 -62 63 -66 -4 -4 -30 -13 -58 -19 -27 -7 -58
-14 -67 -17 -14 -4 -17 6 -20 81 -2 47 0 84 4 83 4 -2 39 -29 78 -62z m-90
-201 l0 -86 -82 68 -81 67 64 17 c105 28 99 31 99 -66z m338 -18 c29 -22 52
-43 52 -47 0 -7 -113 -50 -132 -50 -4 0 -8 37 -8 81 0 77 1 81 18 68 11 -8 42
-31 70 -52z m352 21 c-1 -83 -344 -513 -454 -570 -79 -40 -67 9 39 157 214
300 416 500 415 413z m-450 -198 c0 -36 -4 -60 -11 -60 -12 0 -109 80 -109 90
0 4 19 12 43 17 78 19 77 20 77 -47z m1263 10 c97 -49 177 -123 276 -255 71
-94 214 -305 208 -305 -3 0 -37 13 -77 30 -72 30 -219 65 -241 58 -6 -2 30
-32 80 -68 l91 -64 -73 -18 c-237 -60 -421 -250 -444 -462 l-8 -69 -92 96
c-102 107 -199 246 -233 334 -39 103 -39 103 -39 23 -1 -129 45 -260 136 -389
80 -112 365 -389 472 -460 108 -70 108 -70 -94 -41 -386 57 -723 185 -795 303
-14 23 -20 50 -20 93 0 66 16 104 108 259 42 72 53 110 87 315 54 324 171 527
358 622 118 59 180 59 300 -2z m-755 -174 c64 -45 81 -62 76 -75 -18 -40 -73
-208 -73 -226 -1 -16 -6 -14 -38 16 -21 20 -75 66 -120 103 l-82 67 52 62 c29
34 61 74 72 89 11 15 22 26 25 25 3 -1 42 -28 88 -61z m2856 -28 c-17 -18 -79
-88 -138 -155 l-108 -121 -106 65 c-59 36 -111 68 -115 73 -5 4 27 15 70 24
111 23 262 73 341 111 85 42 93 43 56 3z m-1639 -22 c55 -18 124 -39 153 -46
l52 -12 92 -132 c50 -72 105 -148 121 -170 l30 -38 -39 -34 c-97 -85 -102 -88
-127 -71 -13 8 -72 88 -132 177 -89 133 -187 271 -248 348 -13 16 -17 17 98
-22z m574 -116 c46 -5 85 -11 88 -13 6 -7 -124 -169 -134 -166 -7 2 -109 142
-137 188 -8 12 0 13 45 7 30 -4 92 -11 138 -16z m2401 -32 l59 -52 -62 -27
c-34 -14 -147 -66 -252 -114 -104 -48 -291 -132 -415 -187 -124 -55 -263 -118
-308 -139 -46 -21 -87 -39 -90 -39 -4 0 -20 23 -35 50 l-28 50 83 39 c93 43
555 266 808 390 91 44 169 81 173 81 5 0 35 -23 67 -52z m-1980 14 c0 -4 -20
-43 -45 -86 -68 -120 -195 -284 -318 -413 l-50 -51 -39 28 c-22 16 -63 34 -92
41 l-52 11 117 115 c68 66 157 168 210 239 l93 124 88 0 c48 0 88 -3 88 -8z
m307 -197 c1 -6 -17 -32 -40 -59 l-43 -49 -39 20 c-96 48 -171 48 -224 1 -14
-13 -10 -5 11 20 20 24 55 81 78 126 l42 83 106 -66 c58 -37 107 -71 109 -76z
m1790 81 c15 -13 26 -26 23 -29 -3 -2 -88 -43 -190 -90 -102 -46 -357 -164
-568 -261 l-383 -177 -19 23 c-10 13 -16 26 -12 29 4 3 149 73 322 154 173 82
421 199 550 261 129 62 238 113 242 114 4 0 20 -11 35 -24z m-2915 -291 c62
-37 115 -69 117 -71 1 -1 -17 -8 -40 -14 -181 -48 -350 -180 -420 -327 -42
-87 -51 -192 -24 -274 10 -30 22 -60 28 -67 23 -29 -7 -21 -90 23 -98 52 -166
101 -232 169 -54 55 -66 111 -51 226 25 183 169 341 361 395 36 10 84 14 146
11 l91 -3 114 -68z m733 44 c-11 -34 3 -85 39 -136 l33 -48 -117 0 -117 0 45
50 c25 28 61 74 80 103 37 56 47 64 37 31z m206 -9 c10 -6 19 -17 19 -26 0
-28 34 -73 218 -288 52 -60 99 -119 104 -132 13 -28 -4 -54 -35 -54 -25 0
-257 231 -307 305 -39 56 -93 183 -84 196 7 12 61 11 85 -1z m610 -67 c12 -32
69 -152 126 -266 57 -115 103 -216 103 -225 0 -60 -194 224 -264 387 l-48 112
23 25 c12 13 26 24 30 24 3 0 17 -26 30 -57z m-161 -94 c0 -5 -10 -9 -21 -9
-18 0 -19 2 -9 15 12 15 30 12 30 -6z m-1097 -81 l33 -21 -47 -47 c-25 -25
-52 -56 -58 -69 l-12 -22 38 24 c93 58 242 95 408 103 l120 6 -45 -45 -45 -44
58 -69 c166 -195 205 -289 162 -391 -17 -41 -62 -103 -74 -103 -4 0 -17 24
-30 54 -19 47 -112 156 -132 156 -4 0 6 -28 23 -61 43 -85 49 -176 16 -239
-13 -25 -38 -55 -57 -68 l-35 -22 -17 55 c-23 75 -59 127 -113 164 -25 17 -47
31 -50 31 -3 0 7 -19 23 -42 37 -56 51 -100 51 -158 0 -69 -43 -110 -115 -110
-63 0 -70 12 -24 42 l40 26 -88 44 c-108 52 -196 135 -239 223 -26 54 -29 70
-29 155 0 52 4 111 8 130 8 33 6 31 -27 -20 -19 -30 -43 -83 -52 -117 l-16
-61 -70 19 c-85 24 -143 52 -152 74 -26 69 12 165 103 255 76 75 154 120 261
149 99 26 143 26 183 -1z m1167 -96 c65 -69 108 -152 123 -237 9 -56 8 -66
-12 -107 -27 -57 -59 -82 -195 -152 -164 -84 -253 -94 -321 -35 -32 28 -33 31
-28 92 3 35 0 88 -6 117 l-12 54 40 40 c34 34 42 38 55 27 11 -9 16 -31 16
-65 0 -67 16 -123 46 -163 27 -35 45 -41 63 -19 8 10 5 24 -13 57 -14 24 -28
62 -31 84 l-7 40 65 -1 c55 0 70 -5 97 -27 49 -42 120 -31 78 11 -7 7 -15 56
-18 117 -5 97 -8 108 -39 151 -38 54 -35 74 11 74 27 0 42 -11 88 -58z m-512
-56 l64 -49 -36 -35 -35 -35 -61 56 c-33 31 -61 59 -61 63 -1 3 8 19 20 35 25
33 21 34 109 -35z m-2139 -470 c192 -67 405 -111 646 -136 186 -18 177 -15
169 -58 -4 -24 -17 -47 -38 -64 -38 -33 -71 -35 -266 -12 -230 26 -465 84
-640 156 -52 22 -103 42 -112 45 -24 7 -23 21 8 97 l25 63 52 -27 c29 -16 99
-45 156 -64z m1152 13 c9 -17 8 -25 -4 -37 -27 -26 -67 6 -53 43 8 22 44 18
57 -6z m-112 -138 c11 -7 5 -18 -28 -48 -37 -36 -41 -45 -41 -87 0 -61 19
-104 65 -149 39 -38 34 -47 -13 -23 -62 32 -102 104 -102 182 0 42 5 51 44 90
45 46 52 49 75 35z m351 -123 c0 -5 -5 -17 -12 -27 -11 -19 -14 -18 -50 15
-22 19 -54 42 -73 51 -40 19 -41 24 -18 63 l16 28 69 -61 c37 -34 68 -65 68
-69z m-1646 58 c169 -96 601 -206 811 -206 l58 0 -79 -82 c-113 -118 -201
-256 -290 -456 -3 -7 -324 92 -449 138 -126 47 -435 188 -493 226 l-23 15 67
77 c52 59 315 332 320 332 0 0 35 -20 78 -44z m1406 -50 c0 -8 21 -32 48 -53
59 -48 71 -63 72 -88 0 -26 -18 -45 -43 -45 -33 0 -157 120 -157 153 0 4 10
15 22 27 25 23 58 27 58 6z m1052 -186 l88 -47 -23 -20 c-60 -55 -384 -263
-409 -263 -4 0 -8 8 -8 18 -1 61 -128 278 -185 315 l-33 21 32 12 c65 25 163
66 210 88 l50 23 95 -50 c53 -28 135 -71 183 -97z m-1347 20 l25 -50 -56 -66
c-78 -93 -196 -284 -174 -284 7 0 121 119 251 262 31 34 36 36 53 23 18 -14
17 -17 -21 -82 -90 -151 -123 -236 -188 -472 -19 -68 -36 -125 -37 -127 -2 -1
-82 30 -178 70 -96 39 -183 75 -192 79 -16 5 -15 11 8 68 100 246 243 444 419
581 33 25 61 47 62 47 2 1 14 -22 28 -49z m702 -22 c90 -83 198 -314 218 -463
3 -27 8 -59 10 -71 4 -18 -14 -30 -128 -89 -72 -37 -146 -78 -163 -91 l-31
-23 -6 157 c-5 178 -28 274 -96 415 l-37 78 29 21 c24 17 31 18 38 7 42 -64
82 -145 130 -269 51 -127 58 -140 58 -105 2 115 -45 279 -114 400 -25 43 -45
79 -45 80 0 1 25 -4 56 -11 31 -7 68 -23 81 -36z m-300 -189 c44 -87 98 -297
80 -315 -19 -19 -437 -54 -437 -37 0 33 84 229 146 340 l35 62 77 -4 77 -3 22
-43z m1250 -82 c174 -119 239 -243 231 -441 -3 -85 -8 -109 -31 -152 -67 -131
-254 -210 -522 -221 -191 -8 -307 21 -357 88 -14 18 -17 33 -13 52 7 25 11 27
55 27 49 0 194 26 218 40 8 4 -19 10 -60 13 -64 6 -196 37 -337 79 l-44 13 87
53 c48 29 102 67 121 84 34 29 35 32 35 107 l0 78 91 49 c50 27 152 90 227
141 l137 92 45 -26 c25 -14 77 -48 117 -76z m-3047 -89 c199 -98 422 -176 707
-248 41 -10 42 -11 40 -51 l-2 -41 83 -33 83 -32 -248 -178 c-340 -243 -406
-275 -575 -275 -166 0 -302 36 -417 110 -83 54 -147 120 -177 183 -50 109 -22
199 99 311 39 37 92 87 117 110 25 23 68 81 95 129 28 47 52 85 55 84 3 -2 66
-33 140 -69z m1880 -304 c0 -30 -3 -35 -17 -30 -9 4 -45 14 -80 23 -35 8 -62
17 -60 19 4 4 104 21 135 23 19 1 22 -4 22 -35z m-2260 -556 c57 -34 195 -85
274 -103 28 -6 26 -8 -50 -56 -64 -40 -86 -49 -124 -49 -118 0 -280 70 -375
161 l-64 61 19 37 c10 21 37 61 59 89 l41 51 77 -77 c43 -42 107 -94 143 -114z
m3525 12 c-7 -86 -9 -91 -35 -105 -81 -42 -343 -82 -465 -71 -124 11 -119 7
-130 118 l-7 66 118 -5 c147 -6 285 13 421 59 54 19 100 32 102 31 2 -1 0 -43
-4 -93z m-3721 -255 c90 -43 197 -75 250 -75 23 0 27 -3 21 -17 -4 -10 -15
-62 -24 -116 l-17 -98 -32 50 c-112 173 -359 251 -533 168 -57 -27 -121 -75
-85 -62 11 3 52 11 91 17 124 19 285 -27 375 -108 44 -39 120 -147 120 -169 0
-7 -33 -22 -72 -33 -229 -66 -546 -53 -726 31 -42 19 -43 21 -37 55 10 53 50
128 111 209 52 67 208 213 301 280 l43 31 62 -60 c43 -42 88 -72 152 -103z
m3768 29 c35 -18 28 -27 -32 -39 -19 -3 -80 -28 -136 -55 -82 -40 -111 -60
-160 -113 -39 -41 -69 -85 -84 -122 l-23 -57 -66 6 c-81 8 -224 35 -242 46
-10 7 -9 24 8 92 12 46 31 109 43 141 17 46 25 57 38 51 10 -3 74 -9 143 -12
166 -6 281 12 477 77 2 1 17 -6 34 -15z m281 -144 c126 -64 247 -169 234 -203
-6 -16 -63 -32 -169 -48 -79 -11 -530 -14 -615 -3 l-52 6 20 41 c46 88 184
187 310 221 30 8 90 15 134 15 69 1 88 -3 138 -29z"/>
<path d="M3985 6941 c-49 -13 -88 -37 -133 -84 l-43 -44 64 -5 c61 -5 147 -36
226 -82 l33 -19 -53 -14 c-129 -32 -234 -117 -287 -230 -24 -51 -27 -70 -27
-158 0 -88 3 -105 24 -142 14 -24 27 -43 30 -43 3 0 4 26 2 57 -10 167 94 343
231 389 56 18 180 16 232 -5 l29 -12 -51 -25 c-62 -31 -106 -79 -141 -154 -34
-72 -36 -182 -5 -251 61 -133 186 -192 299 -140 117 53 186 249 141 403 -23
82 -24 80 44 72 104 -12 180 33 197 116 6 31 5 32 -17 20 -61 -33 -163 14
-388 179 -90 66 -188 132 -219 146 -59 28 -138 39 -188 26z"/>
<path d="M5629 6802 c-30 -16 -112 -72 -182 -125 -70 -54 -143 -101 -166 -108
-54 -16 -56 -48 -6 -94 l35 -32 -22 -49 c-24 -55 -38 -206 -20 -218 6 -3 13 8
17 26 21 94 111 211 187 243 45 18 112 19 153 1 l30 -13 -38 -8 c-163 -32
-259 -307 -150 -435 77 -92 200 -78 284 33 84 111 100 287 37 416 -30 62 -92
120 -144 134 -42 11 -43 12 -26 31 9 10 44 36 76 58 48 31 68 38 108 38 27 0
62 -7 78 -15 27 -14 30 -14 30 0 0 33 -30 84 -65 111 -30 22 -50 29 -99 32
-53 3 -69 0 -117 -26z"/>
<path d="M2527 6436 c-67 -24 -107 -78 -107 -142 l0 -27 23 21 c29 28 89 52
127 52 43 0 96 -24 110 -50 10 -19 9 -24 -9 -36 -28 -20 -53 -108 -45 -160 12
-83 82 -164 141 -164 23 0 22 1 -11 30 -42 37 -60 87 -53 147 5 50 30 83 62
83 30 0 91 -68 106 -119 7 -23 16 -41 21 -41 17 0 8 129 -13 186 -58 153 -234
263 -352 220z"/>
<path d="M6908 5762 l-86 -137 26 -22 c15 -12 32 -22 37 -23 6 0 51 20 102 46
83 42 91 48 83 67 -4 12 -20 61 -35 110 -15 48 -31 89 -34 92 -4 2 -46 -58
-93 -133z"/>
<path d="M7346 5760 c-32 -39 -33 -65 -2 -85 22 -15 27 -15 55 0 32 16 45 46
39 86 -2 19 -10 25 -34 27 -25 2 -37 -3 -58 -28z"/>
<path d="M8281 4982 l-123 -46 38 -34 c22 -18 64 -46 95 -62 l57 -29 61 55
c43 40 61 63 61 80 0 36 -28 84 -48 83 -9 0 -73 -22 -141 -47z"/>
<path d="M7820 4890 c-56 -55 -60 -72 -28 -94 53 -38 118 -5 118 59 0 37 -18
85 -32 85 -5 0 -31 -22 -58 -50z"/>
<path d="M6750 4270 c-41 -32 -76 -63 -78 -68 -3 -11 75 -112 87 -112 18 0
111 112 111 133 0 20 -35 108 -42 107 -2 -1 -37 -27 -78 -60z"/>
<path d="M7183 2285 c-183 -57 -300 -249 -265 -436 31 -168 149 -283 318 -311
167 -28 336 56 407 203 109 221 0 475 -232 543 -65 19 -170 20 -228 1z m232
-125 c99 -42 156 -130 154 -239 -1 -77 -12 -113 -55 -174 -90 -127 -305 -132
-416 -9 -112 124 -72 342 76 419 64 33 168 35 241 3z"/>
</g>
</svg>
